<?xml version="1.0" encoding="iso-8859-1"?>
<!-- Generator: Adobe Illustrator 27.0.0, SVG Export Plug-In . SVG Version: 6.00 Build 0)  -->
<svg version="1.1" baseProfile="basic" id="&#x421;&#x43B;&#x43E;&#x439;_1"
	 xmlns="http://www.w3.org/2000/svg" xmlns:xlink="http://www.w3.org/1999/xlink" x="0px" y="0px" viewBox="0 0 24 24"
	 xml:space="preserve">
<path d="M17,3H7C4.8,3,3,4.8,3,7v10c0,2.2,1.8,4,4,4h10c2.2,0,4-1.8,4-4V7C21,4.8,19.2,3,17,3z M17,15h-0.01
	C17,15.04,17,15.08,17,15.12c0,1.04-1.12,1.88-2.5,1.88S12,16.04,12,15c0-1.03,1-2,2-2c0.17,0,1,0,1,0V9.5l-4,1V16h-0.01
	C11,16.04,11,16.08,11,16.12C11,17.16,9.88,18,8.5,18S6,17.04,6,16c0-1.03,1-2,2-2c0.17,0,1,0,1,0c0-1,0-5.22,0-5.22
	c0-0.46,0.31-0.86,0.76-0.97l6-1.5C16.39,6.15,17,6.63,17,7.28V15z"/>
</svg>